<svg xmlns="http://www.w3.org/2000/svg" xmlns:xlink="http://www.w3.org/1999/xlink" id="Layer_1" x="0px" y="0px" viewBox="0 0 686.5 117.6" style="enable-background:new 0 0 686.5 117.6;" xml:space="preserve"><style type="text/css">	.st0{fill:#007E32;}	.st1{fill:#033F85;}	.st2{fill:#D61C27;}	.st3{fill:#FBB809;}	.st4{fill:#FBB800;}	.st5{fill:#121212;}</style><path class="st0" d="M677.9,33.9c-3.4,0-6.1,2.8-6.2,6.2c0,3.4,2.8,6.2,6.1,6.2c3.4,0,6.2-2.8,6.2-6.2 C684.1,36.7,681.3,33.9,677.9,33.9 M677.9,45.2c-2.8,0-5.1-2.3-5.1-5.1c0-2.8,2.3-5.1,5.1-5.1c2.8,0,5.1,2.3,5.1,5.1 C683.1,42.9,680.8,45.2,677.9,45.2"></path><path class="st0" d="M680.9,38.8c0-0.6-0.2-1.1-0.6-1.5c-0.4-0.4-0.9-0.6-1.5-0.6l-2.7,0c-0.2,0-0.3,0.1-0.4,0.2 c-0.1,0.1-0.2,0.2-0.2,0.4v5.4c0,0.1,0.1,0.3,0.2,0.4c0.1,0.1,0.2,0.2,0.4,0.2c0.1,0,0.3-0.1,0.4-0.2c0.1-0.1,0.2-0.2,0.2-0.4l0-1.6 l2.1,0l1.2,1.9c0.1,0.2,0.3,0.3,0.5,0.3c0.1,0,0.2,0,0.3-0.1c0.1-0.1,0.2-0.2,0.2-0.3c0-0.1,0-0.3-0.1-0.4l-1-1.6 c0.3-0.2,0.6-0.5,0.8-0.8C680.8,39.6,680.9,39.2,680.9,38.8 M679.5,39.6c-0.2,0.2-0.5,0.3-0.8,0.3l-2.2,0v-2.2l2.2,0 c0.3,0,0.6,0.1,0.8,0.3c0.2,0.2,0.3,0.5,0.3,0.8C679.8,39.2,679.7,39.4,679.5,39.6"></path><path class="st1" d="M158.8,34.1c-3.2,0-5.9,2.7-5.9,5.9l0,4.4c-2.9-6.5-10-10.7-18.2-10.7c-12.2,0-27.1,9.8-27.1,29.6 c0,20.1,14.8,29.7,27.1,29.7c10.6,0,17.5-7,18.2-12l0,6c0,3.2,2.7,5.9,5.9,5.9c3.2,0,6-2.7,6-5.9l0-47 C164.8,36.8,162.1,34.1,158.8,34.1 M136.6,82.9c-8.1,0-17.2-6.3-17.2-19.6c0-13.1,9.1-19.5,17.2-19.5c7.6,0,16.9,5.6,16.9,19.5 C153.5,77.1,144.1,82.9,136.6,82.9"></path><path class="st1" d="M203.1,33.9c-10.9,0-17.9,9.7-18.5,13.6l0-7.3c0-3.3-2.7-6-5.9-6c-3.2,0-5.9,2.7-5.9,6l0,46.8 c0,3.2,2.7,5.9,5.9,5.9c3.2,0,5.9-2.7,5.9-5.9l0-28.6c0.8-5.9,7.1-13.5,16.9-13.5c5,0,7.6-2.2,7.6-5.6 C209.1,36.3,207,33.9,203.1,33.9"></path><path class="st2" d="M256.8,19.5c0,2.6-1.9,4.3-4.3,4.3c-1,0-2.4-0.4-4.2-1.1c-1.6-0.7-3-1.3-5.2-1.3c-6.2,0-8.2,4.7-8.2,9.2l0,3.8 l11.1,0c2.9,0,4.9,1.9,4.9,4.7c0,2.9-2,4.8-4.9,4.8l-11.1,0l0,43.1c0,3.2-2.7,5.9-5.8,5.9c-3.2,0-5.9-2.7-5.9-5.9l0-43.1l-3.7,0 c-2.9,0-4.8-1.9-4.8-4.8c0-2.8,1.9-4.7,4.8-4.7l3.7,0l0-4.2c0-15.2,11.2-18.8,18.5-18.8c5,0,9.2,1.3,12.2,3.4 C255.7,16.1,256.8,17.5,256.8,19.5"></path><path class="st2" d="M261.4,17.6c0-3.2,2.8-5.9,6-5.9c3.2,0,6,2.7,6,5.9c0,3.2-2.8,5.9-6,5.9C264.2,23.5,261.4,20.9,261.4,17.6  M273.3,40.1l0,46.8c0,3.3-2.7,6-5.9,6c-3.2,0-5.9-2.7-5.9-6l0-46.8c0-3.3,2.7-6,5.9-6C270.6,34.1,273.3,36.8,273.3,40.1"></path><path class="st2" d="M334.5,59.6l0,27.3c0,3.2-2.6,5.9-5.8,5.9c-3.2,0-5.9-2.7-5.9-5.9l0-27.3c0-11.1-6.3-15.6-13.6-15.6 c-10.7,0-15.3,9.6-16,14.3l0,28.6c0,3.2-2.7,5.9-5.9,5.9c-3.2,0-5.9-2.7-5.9-5.9l0-46.8c0-3.3,2.7-6,5.9-6c3.2,0,5.9,2.7,5.9,6 l0,7.3c0.6-3.9,7.2-13.6,19.9-13.6C323.9,33.9,334.5,40.7,334.5,59.6"></path><path class="st2" d="M399.8,18.8l0,68.3c0,3.2-2.8,5.9-6,5.9c-3.2,0-5.9-2.7-5.9-5.9l0-6c-0.8,5-7.7,12-18.2,12 c-12.3,0-27.1-9.6-27.1-29.7c0-19.8,14.9-29.6,27.1-29.6c8.2,0,15.3,4.2,18.2,10.7V40c0-0.3,0-0.8,0.1-1.1l0-20.1 c0-3.2,2.7-5.9,5.8-5.9C397,12.9,399.8,15.5,399.8,18.8 M388.5,63.3c0-13.9-9.3-19.5-16.9-19.5c-8.1,0-17.2,6.3-17.2,19.5 c0,13.2,9.1,19.6,17.2,19.6C379.1,82.9,388.5,77.1,388.5,63.3"></path><path class="st3" d="M407.9,85.6c0-3.8,3.1-6.9,7-6.9c3.7,0,6.8,3.1,6.8,6.9c0,3.9-3.1,7-6.8,7C411,92.6,407.9,89.5,407.9,85.6"></path><path class="st3" d="M474.1,79.9c0,2.7-1.9,4.1-3.1,5.3c-4.8,5-11,7.6-18.7,7.6c-13.2,0-29.2-9.7-29.2-29.5 c0-19.9,16-29.6,29.2-29.6c7.7,0,13.9,2.6,18.7,7.6c1.2,1.2,3.1,2.7,3.1,5.3c0,2.8-2.3,4.6-4.8,4.6c-2.2,0-3.9-1.2-4.8-2.1 c-3-3.6-7.7-5.1-11.8-5.1c-9.3,0-18,6.7-18,19.3c0,12.6,8.7,19.2,18,19.2c4.1,0,8.8-1.6,11.8-5.1c0.9-0.9,2.6-2.1,4.8-2.1 C471.7,75.4,474.1,77.1,474.1,79.9"></path><path class="st3" d="M537.4,63.5c0,19.9-16.6,29.6-29.3,29.6c-12.8,0-29.2-9.7-29.2-29.6c0-19.8,16.5-29.7,29.2-29.7 C520.8,33.8,537.4,43.7,537.4,63.5 M490.4,63.5c0,12.6,9,19.3,17.6,19.3c8.7,0,17.7-6.8,17.7-19.3c0-12.7-9-19.5-17.7-19.5 C499.4,44,490.4,50.8,490.4,63.5"></path><path class="st0" d="M538.7,85.6c0-3.8,3.1-6.9,7-6.9c3.7,0,6.8,3.1,6.8,6.9c0,3.9-3.1,7-6.8,7C541.8,92.6,538.7,89.5,538.7,85.6"></path><path class="st0" d="M602,47.8l-30.7,34.4l28.7,0c2.8,0,5.1,2.2,5.1,5c0,2.9-2.3,5.1-5.1,5.1l-32.7,0c-7.3,0-11.3-7.3-5.9-13.5 L592,44.6l-26.8,0c-2.8,0-5.1-2.2-5.1-5.1c0-2.8,2.3-5,5.1-5l30.7,0C603.1,34.4,607.3,41.8,602,47.8"></path><path class="st0" d="M655.2,44.4l0-4.4c0-3.2,2.7-5.9,5.9-5.9c3.2,0,6,2.7,6,5.9l0,47c0,3.2-2.8,5.9-6,5.9c-3.2,0-5.9-2.7-5.9-5.9 l0-6c-0.8,5-7.7,12-18.2,12c-12.3,0-27.1-9.6-27.1-29.7c0-19.8,14.9-29.6,27.1-29.6C645.2,33.8,652.3,38,655.2,44.4 M655.7,63.3 c0-13.9-9.3-19.5-16.9-19.5c-8.1,0-17.2,6.3-17.2,19.5c0,13.2,9.1,19.6,17.2,19.6C646.4,82.9,655.7,77.1,655.7,63.3"></path><path class="st2" d="M62.3,23L62,23c-5.1,0-9.9,1.4-14,3.7l23.5,15.8l18.1,0C85.6,31.2,74.9,23.1,62.3,23"></path><path class="st0" d="M90.7,46.4l-20.7,0L44.4,29.1c-3.1,2.4-5.8,5.5-7.7,9l21,14.1l-21,14.1c1.9,3.5,4.6,6.5,7.8,9L70.1,58l20.7,0 c0.4-1.9,0.6-3.8,0.6-5.8C91.3,50.2,91.1,48.2,90.7,46.4"></path><path class="st1" d="M48,77.6c4.2,2.3,9,3.7,14.2,3.7c12.7,0,23.5-8.1,27.5-19.4l-18.1,0L48,77.6z"></path><path class="st4" d="M36.7,38.1c-0.6,1.2-1.2,2.4-1.7,3.6l15.8,10.5L35,62.7c0.5,1.2,1,2.4,1.6,3.5l21-14.1L36.7,38.1z"></path><path class="st5" d="M35,41.7c-1.3,3.3-2,6.8-2,10.5c0,3.7,0.7,7.3,2,10.6l15.7-10.6L35,41.7z"></path><path class="st1" d="M62.3,101.9c15.5,0,29.9-7.1,39.4-19.4c1.9-2.5,1.5-6.1-1-8.1c-1.2-0.9-2.7-1.4-4.3-1.1c-1.5,0.2-2.9,1-3.8,2.2 C85.3,85,74.2,90.4,62.3,90.4C41.2,90.4,24,73.2,24,52.2s17.1-38.2,38.2-38.2c11.7,0,22.6,5.3,29.9,14.5c2,2.5,5.6,2.9,8.1,0.9 c2.5-2,2.9-5.6,0.9-8.1C91.7,9.3,77.5,2.4,62.3,2.4c-27.4,0-49.7,22.3-49.7,49.7c0,11.2,3.7,21.8,10.6,30.6l0.3,0.3L21.6,85 L4.8,101.9c-1.5,1.5-2.3,3.4-2.3,5.5c0,2.1,0.8,4.1,2.3,5.5c1.4,1.4,3.4,2.2,5.5,2.2h0c2.1,0,4.1-0.8,5.5-2.2l19.2-19.2l0.3,0.2 C43.5,99.1,52.7,101.9,62.3,101.9"></path></svg>