<svg xmlns="http://www.w3.org/2000/svg" width="454.546" height="76.342" viewBox="0 0 454.546 76.342">
  <g id="Group_52" data-name="Group 52" transform="translate(0 0)">
    <path id="Path_60" data-name="Path 60" d="M14.827,20.38H54.892V37.019H14.827ZM0,6.088V66.832H14.827V51.3H60.42l9.3-9.3L69.7,6.088Z" transform="translate(0 9.449)" fill="#f15a31"/>
    <path id="Path_61" data-name="Path 61" d="M181.414,6.089H111.735v45.2h60.4l9.3-9.3ZM166.607,37.007H126.542V20.375h40.065Z" transform="translate(173.419 9.451)" fill="#f15a31"/>
    <path id="Path_62" data-name="Path 62" d="M29.977,0V44.64L44.8,29.813H80.444V60.744H95.272l-.061-45.2H44.8V0Z" transform="translate(46.526 0)" fill="#f15a31"/>
    <path id="Path_63" data-name="Path 63" d="M207,51.3l-.064-45.146L141.7,6.088v29.1l14.83-14.827h35.637V51.3Z" transform="translate(219.932 9.449)" fill="#f15a31"/>
    <path id="Path_64" data-name="Path 64" d="M58.2,6.112l.061,45.21h50.406V66.856H123.5V22.215L108.671,37.042H73.031V6.112Z" transform="translate(90.336 9.486)" fill="#f15a31"/>
    <path id="Path_65" data-name="Path 65" d="M144.181,20.388V6.112H95.746l-9.3,9.3.02,35.907h14.81V20.388Z" transform="translate(134.169 9.486)" fill="#f15a31"/>
    <path id="Path_66" data-name="Path 66" d="M170.8,7.421H173.8v8.445h1.432V7.421h3.019V6.112H170.8Z" transform="translate(265.087 9.486)" fill="#f15a31"/>
    <path id="Path_67" data-name="Path 67" d="M182.011,6.112l-2.876,6.947-2.861-6.947h-1.906v9.754H175.8v-7.3l3.006,7.3h.656l3.019-7.3v7.3h1.434V6.112Z" transform="translate(270.629 9.486)" fill="#f15a31"/>
  </g>
</svg>
