<svg xmlns="http://www.w3.org/2000/svg" width="369.98" height="143.053" viewBox="0 0 369.98 143.053"><g id="Group_10" data-name="Group 10" transform="translate(2120.836 -9.409)"><rect id="Rectangle_1" data-name="Rectangle 1" width="120.687" height="14.928" transform="translate(-2058.318 73.761)" fill="#004f9d"></rect><path id="Path_1" data-name="Path 1" d="M-1977.317,137.464a56.528,56.528,0,0,1-56.529-56.529,56.528,56.528,0,0,1,56.529-56.529,56.528,56.528,0,0,1,56.527,56.529,56.528,56.528,0,0,1-56.527,56.529m0-128.055a71.526,71.526,0,0,0-71.526,71.526,71.526,71.526,0,0,0,71.526,71.526,71.526,71.526,0,0,0,71.526-71.526,71.526,71.526,0,0,0-71.526-71.526" transform="translate(-43.881)" fill="#004f9d"></path><path id="Path_2" data-name="Path 2" d="M-1636.262,101.906h15.47a14.862,14.862,0,0,0,10.908-4.518,14.87,14.87,0,0,0,4.519-10.908,14.877,14.877,0,0,0-4.519-10.907,14.857,14.857,0,0,0-10.908-4.514h-15.47Zm-7.678,46.332a7.447,7.447,0,0,1-5.483-2.259,7.447,7.447,0,0,1-2.26-5.483V63.311a7.39,7.39,0,0,1,2.26-5.419,7.467,7.467,0,0,1,5.483-2.259h23.148a29.714,29.714,0,0,1,21.815,9.038,29.72,29.72,0,0,1,9.033,21.809,30.33,30.33,0,0,1-4.322,15.747,30.7,30.7,0,0,1-11.292,11.1l14.452,23.105a7.455,7.455,0,0,1,.969,5.808,7.371,7.371,0,0,1-3.42,4.837,7.562,7.562,0,0,1-4.066,1.162,7.289,7.289,0,0,1-6.58-3.613l-17.035-27.234h-15.024v23.1a7.46,7.46,0,0,1-2.254,5.483,7.389,7.389,0,0,1-5.423,2.259" transform="translate(-285.958 -28.174)" fill="#004f9d"></path><path id="Path_3" data-name="Path 3" d="M-1418.348,80.079v-19.5a3.028,3.028,0,0,1,.6-2.043,2.037,2.037,0,0,1,1.622-.691,2.127,2.127,0,0,1,1.648.684,2.954,2.954,0,0,1,.627,2.051v19.5a2.933,2.933,0,0,1-.635,2.051,2.138,2.138,0,0,1-1.64.683,2.029,2.029,0,0,1-1.606-.708,2.989,2.989,0,0,1-.617-2.026" transform="translate(-428.18 -29.521)" fill="#004f9d"></path><path id="Path_4" data-name="Path 4" d="M-1390.439,67.391v13a2.911,2.911,0,0,1-.642,2.041,2.133,2.133,0,0,1-1.631.692,2.032,2.032,0,0,1-1.607-.708,2.986,2.986,0,0,1-.618-2.025V67.522a2.885,2.885,0,0,1,.618-2.01,2.079,2.079,0,0,1,1.607-.675,2.159,2.159,0,0,1,1.631.675,2.626,2.626,0,0,1,.642,1.879m-2.223-4.645a2.366,2.366,0,0,1-1.606-.578,2.034,2.034,0,0,1-.668-1.63,2.02,2.02,0,0,1,.685-1.572,2.29,2.29,0,0,1,1.59-.618,2.366,2.366,0,0,1,1.548.56,2.005,2.005,0,0,1,.675,1.631,2.061,2.061,0,0,1-.659,1.622,2.279,2.279,0,0,1-1.564.585" transform="translate(-442.45 -29.829)" fill="#004f9d"></path><path id="Path_5" data-name="Path 5" d="M-1370.557,77.767l3.638,10.213L-1363,77.322a6.363,6.363,0,0,1,.906-1.82,1.659,1.659,0,0,1,1.352-.535,2.025,2.025,0,0,1,1.456.578,1.791,1.791,0,0,1,.6,1.334,2.669,2.669,0,0,1-.108.692,5.837,5.837,0,0,1-.247.741c-.093.232-.2.494-.32.791l-4.314,10.707c-.121.307-.278.7-.471,1.17a5.929,5.929,0,0,1-.643,1.21,2.524,2.524,0,0,1-.873.783,2.622,2.622,0,0,1-1.26.279,2.449,2.449,0,0,1-1.523-.436,2.917,2.917,0,0,1-.838-.956q-.274-.519-.914-2.051l-4.284-10.592c-.1-.264-.2-.526-.3-.792a6.723,6.723,0,0,1-.264-.806,2.888,2.888,0,0,1-.108-.709,1.734,1.734,0,0,1,.28-.913,2.193,2.193,0,0,1,.776-.742,2.1,2.1,0,0,1,1.072-.289,1.706,1.706,0,0,1,1.54.642,10.318,10.318,0,0,1,.93,2.159" transform="translate(-454.507 -39.958)" fill="#004f9d"></path><path id="Path_6" data-name="Path 6" d="M-1323.395,82.611h8.156a5.482,5.482,0,0,0-1.243-3.451,3.724,3.724,0,0,0-2.842-1.145,3.6,3.6,0,0,0-2.761,1.16,5.807,5.807,0,0,0-1.31,3.436m8.8,2.552h-8.8a5.98,5.98,0,0,0,.62,2.7,4.211,4.211,0,0,0,1.6,1.762,4.208,4.208,0,0,0,2.2.594,5.379,5.379,0,0,0,1.477-.189,4.83,4.83,0,0,0,1.293-.594,10.149,10.149,0,0,0,1.153-.864c.351-.308.805-.726,1.368-1.252a1.47,1.47,0,0,1,.989-.3,1.626,1.626,0,0,1,1.118.378,1.362,1.362,0,0,1,.43,1.071,2.923,2.923,0,0,1-.48,1.424,5.624,5.624,0,0,1-1.44,1.564,8.207,8.207,0,0,1-2.423,1.246,10.461,10.461,0,0,1-3.351.493,8.97,8.97,0,0,1-6.738-2.471,9.194,9.194,0,0,1-2.4-6.7,11.212,11.212,0,0,1,.593-3.7,8.158,8.158,0,0,1,1.732-2.923,7.455,7.455,0,0,1,2.8-1.869,10.016,10.016,0,0,1,3.689-.651A8.749,8.749,0,0,1-1314.654,76a7.32,7.32,0,0,1,2.825,2.873,7.561,7.561,0,0,1,.938,3.593c0,1.129-.324,1.864-.971,2.2a6.052,6.052,0,0,1-2.734.5" transform="translate(-483.255 -39.909)" fill="#004f9d"></path><rect id="Rectangle_2" data-name="Rectangle 2" width="9.142" height="1.68" transform="translate(-1848.852 55.417)" fill="#004f9d"></rect><path id="Path_7" data-name="Path 7" d="M-1408.162,168.5a6.93,6.93,0,0,0-1.168-4.282,3.75,3.75,0,0,0-3.142-1.533,3.8,3.8,0,0,0-2.244.684,4.325,4.325,0,0,0-1.5,2.017,8.5,8.5,0,0,0-.524,3.114,8.41,8.41,0,0,0,.516,3.08,4.4,4.4,0,0,0,1.479,2.018,3.755,3.755,0,0,0,2.268.7,3.744,3.744,0,0,0,3.142-1.541,6.907,6.907,0,0,0,1.168-4.259m4.356,0a10.955,10.955,0,0,1-.6,3.707,8.165,8.165,0,0,1-1.749,2.915,7.692,7.692,0,0,1-2.735,1.871,9.359,9.359,0,0,1-3.577.649,9.091,9.091,0,0,1-3.546-.657,7.861,7.861,0,0,1-2.728-1.886,8.219,8.219,0,0,1-1.751-2.9,10.985,10.985,0,0,1-.6-3.7,11.133,11.133,0,0,1,.6-3.739,8.192,8.192,0,0,1,1.734-2.9,7.6,7.6,0,0,1,2.737-1.854,9.345,9.345,0,0,1,3.546-.651,9.336,9.336,0,0,1,3.577.66,7.764,7.764,0,0,1,2.751,1.877,8.117,8.117,0,0,1,1.74,2.9,10.983,10.983,0,0,1,.6,3.705" transform="translate(-426.507 -91.399)" fill="#004f9d"></path><path id="Path_8" data-name="Path 8" d="M-1362.287,161.849v.543a7.909,7.909,0,0,1,2.6-2.3,6.91,6.91,0,0,1,3.237-.733,6.445,6.445,0,0,1,3.179.776,4.9,4.9,0,0,1,2.092,2.191,5.154,5.154,0,0,1,.576,1.778,18.353,18.353,0,0,1,.133,2.439v8.368a2.975,2.975,0,0,1-.617,2.043,2.054,2.054,0,0,1-1.606.69,2.078,2.078,0,0,1-1.632-.707,2.96,2.96,0,0,1-.625-2.025v-7.5a7.481,7.481,0,0,0-.617-3.4,2.518,2.518,0,0,0-2.463-1.179,3.64,3.64,0,0,0-2.191.717,4.115,4.115,0,0,0-1.451,1.968,14.161,14.161,0,0,0-.327,3.755v5.635a2.925,2.925,0,0,1-.634,2.05,2.135,2.135,0,0,1-1.64.683,2.032,2.032,0,0,1-1.6-.707,2.955,2.955,0,0,1-.626-2.025v-13a2.826,2.826,0,0,1,.56-1.92,1.939,1.939,0,0,1,1.531-.634,2.088,2.088,0,0,1,1.072.28,2.008,2.008,0,0,1,.764.839,2.948,2.948,0,0,1,.287,1.369" transform="translate(-459.781 -91.399)" fill="#004f9d"></path><path id="Path_9" data-name="Path 9" d="M-1313.981,164.472v-19.5a3.035,3.035,0,0,1,.6-2.045,2.043,2.043,0,0,1,1.622-.691,2.127,2.127,0,0,1,1.648.685,2.948,2.948,0,0,1,.627,2.051v19.5a2.937,2.937,0,0,1-.634,2.051,2.14,2.14,0,0,1-1.641.683,2.03,2.03,0,0,1-1.605-.708,2.983,2.983,0,0,1-.618-2.026" transform="translate(-491.794 -80.959)" fill="#004f9d"></path><path id="Path_10" data-name="Path 10" d="M-1286.071,151.785v13a2.912,2.912,0,0,1-.642,2.043,2.133,2.133,0,0,1-1.631.69,2.03,2.03,0,0,1-1.606-.707,2.986,2.986,0,0,1-.618-2.026V151.916a2.883,2.883,0,0,1,.618-2.01,2.078,2.078,0,0,1,1.606-.675,2.159,2.159,0,0,1,1.631.675,2.622,2.622,0,0,1,.642,1.879m-2.223-4.645a2.368,2.368,0,0,1-1.606-.578,2.034,2.034,0,0,1-.668-1.63,2.02,2.02,0,0,1,.684-1.572,2.291,2.291,0,0,1,1.59-.618,2.367,2.367,0,0,1,1.548.56,2,2,0,0,1,.675,1.631,2.061,2.061,0,0,1-.659,1.622,2.284,2.284,0,0,1-1.564.585" transform="translate(-506.064 -81.269)" fill="#004f9d"></path><path id="Path_11" data-name="Path 11" d="M-1263.279,161.849v.543a7.868,7.868,0,0,1,2.6-2.3,6.9,6.9,0,0,1,3.235-.733,6.44,6.44,0,0,1,3.18.776,4.916,4.916,0,0,1,2.093,2.191,5.22,5.22,0,0,1,.576,1.778,18.329,18.329,0,0,1,.13,2.439v8.368a2.975,2.975,0,0,1-.617,2.043,2.051,2.051,0,0,1-1.607.69,2.069,2.069,0,0,1-1.628-.707,2.96,2.96,0,0,1-.626-2.025v-7.5a7.516,7.516,0,0,0-.618-3.4,2.521,2.521,0,0,0-2.465-1.179,3.649,3.649,0,0,0-2.191.717,4.113,4.113,0,0,0-1.449,1.968,14.152,14.152,0,0,0-.329,3.755v5.635a2.916,2.916,0,0,1-.634,2.05,2.134,2.134,0,0,1-1.639.683,2.04,2.04,0,0,1-1.6-.707,2.974,2.974,0,0,1-.625-2.025v-13a2.835,2.835,0,0,1,.562-1.92,1.938,1.938,0,0,1,1.533-.634,2.085,2.085,0,0,1,1.069.28,2.038,2.038,0,0,1,.767.839,2.993,2.993,0,0,1,.287,1.369" transform="translate(-520.127 -91.399)" fill="#004f9d"></path><path id="Path_12" data-name="Path 12" d="M-1212.532,167h8.156a5.478,5.478,0,0,0-1.243-3.45,3.722,3.722,0,0,0-2.842-1.145,3.6,3.6,0,0,0-2.761,1.16,5.8,5.8,0,0,0-1.31,3.435m8.8,2.553h-8.8a5.977,5.977,0,0,0,.62,2.7,4.217,4.217,0,0,0,1.6,1.762,4.2,4.2,0,0,0,2.2.594,5.4,5.4,0,0,0,1.475-.189,4.878,4.878,0,0,0,1.294-.595,9.979,9.979,0,0,0,1.152-.863c.352-.308.806-.726,1.369-1.252a1.472,1.472,0,0,1,.988-.3,1.629,1.629,0,0,1,1.119.378,1.356,1.356,0,0,1,.43,1.07,2.927,2.927,0,0,1-.479,1.426,5.627,5.627,0,0,1-1.44,1.564,8.22,8.22,0,0,1-2.423,1.246,10.467,10.467,0,0,1-3.352.492,8.966,8.966,0,0,1-6.738-2.47,9.194,9.194,0,0,1-2.4-6.7,11.172,11.172,0,0,1,.594-3.7,8.146,8.146,0,0,1,1.73-2.923,7.467,7.467,0,0,1,2.8-1.869,10.019,10.019,0,0,1,3.69-.651,8.746,8.746,0,0,1,4.522,1.111,7.313,7.313,0,0,1,2.825,2.873,7.555,7.555,0,0,1,.939,3.592q0,1.7-.972,2.2a6.049,6.049,0,0,1-2.733.5" transform="translate(-550.828 -91.349)" fill="#004f9d"></path><path id="Path_13" data-name="Path 13" d="M-1413.935,255.551v3.756a2.911,2.911,0,0,1-.643,2.051,2.145,2.145,0,0,1-1.632.683,2.066,2.066,0,0,1-1.6-.691,2.953,2.953,0,0,1-.625-2.042v-12.52q0-3.031,2.191-3.031a1.828,1.828,0,0,1,1.615.709,3.9,3.9,0,0,1,.542,2.092,7.853,7.853,0,0,1,1.657-2.092,3.412,3.412,0,0,1,2.265-.709,5.782,5.782,0,0,1,2.75.709,2.117,2.117,0,0,1,1.335,1.877,1.792,1.792,0,0,1-.568,1.359,1.767,1.767,0,0,1-1.23.535,5.661,5.661,0,0,1-1.193-.3,5.556,5.556,0,0,0-1.67-.3,2.439,2.439,0,0,0-1.615.52,3.318,3.318,0,0,0-.973,1.54,10.825,10.825,0,0,0-.478,2.429q-.129,1.408-.13,3.435" transform="translate(-428.128 -142.839)" fill="#004f9d"></path><path id="Path_14" data-name="Path 14" d="M-1380.22,251.4h8.156a5.476,5.476,0,0,0-1.244-3.451,3.717,3.717,0,0,0-2.842-1.145,3.6,3.6,0,0,0-2.761,1.16,5.807,5.807,0,0,0-1.31,3.437m8.8,2.551h-8.8a5.975,5.975,0,0,0,.62,2.7,4.21,4.21,0,0,0,1.6,1.762,4.205,4.205,0,0,0,2.2.593,5.351,5.351,0,0,0,1.475-.189,4.841,4.841,0,0,0,1.294-.594,10.069,10.069,0,0,0,1.152-.864c.352-.308.806-.726,1.368-1.252a1.473,1.473,0,0,1,.989-.3,1.627,1.627,0,0,1,1.119.378,1.356,1.356,0,0,1,.43,1.071,2.925,2.925,0,0,1-.479,1.424,5.61,5.61,0,0,1-1.44,1.564,8.2,8.2,0,0,1-2.423,1.246,10.459,10.459,0,0,1-3.352.493,8.97,8.97,0,0,1-6.738-2.471,9.2,9.2,0,0,1-2.4-6.7,11.188,11.188,0,0,1,.592-3.7,8.127,8.127,0,0,1,1.732-2.923,7.456,7.456,0,0,1,2.8-1.869,10.017,10.017,0,0,1,3.689-.651,8.747,8.747,0,0,1,4.522,1.111,7.317,7.317,0,0,1,2.826,2.874,7.566,7.566,0,0,1,.939,3.592q0,1.7-.973,2.2a6.042,6.042,0,0,1-2.734.5" transform="translate(-448.62 -142.789)" fill="#004f9d"></path><path id="Path_15" data-name="Path 15" d="M-1333.955,234.613h.5v-2.7c0-.724.017-1.293.056-1.7a2.517,2.517,0,0,1,.321-1.062,2.046,2.046,0,0,1,.759-.75,2.158,2.158,0,0,1,1.1-.288,2.22,2.22,0,0,1,1.55.643,1.915,1.915,0,0,1,.585,1.045,9.7,9.7,0,0,1,.123,1.754v3.065h1.647a2.108,2.108,0,0,1,1.457.453,1.493,1.493,0,0,1,.5,1.162,1.3,1.3,0,0,1-.716,1.268,4.647,4.647,0,0,1-2.05.362h-.842v8.27a13.273,13.273,0,0,0,.074,1.622,1.645,1.645,0,0,0,.4.923,1.353,1.353,0,0,0,1.045.353,5.538,5.538,0,0,0,1.073-.14,5.578,5.578,0,0,1,1.055-.14,1.361,1.361,0,0,1,.98.436,1.467,1.467,0,0,1,.435,1.08,1.805,1.805,0,0,1-1.185,1.663,8,8,0,0,1-3.41.577,5.89,5.89,0,0,1-3.2-.708,3.3,3.3,0,0,1-1.426-1.961,13.311,13.311,0,0,1-.336-3.342v-8.633h-.595a2.139,2.139,0,0,1-1.482-.462,1.5,1.5,0,0,1-.51-1.168,1.454,1.454,0,0,1,.534-1.162,2.355,2.355,0,0,1,1.557-.453" transform="translate(-478.345 -133.3)" fill="#004f9d"></path><path id="Path_16" data-name="Path 16" d="M-1291.186,252.947a22.506,22.506,0,0,1-2.874.765q-1.888.4-2.612.593a3.562,3.562,0,0,0-1.382.742,1.9,1.9,0,0,0-.659,1.541,2.289,2.289,0,0,0,.772,1.738,2.871,2.871,0,0,0,2.028.716,5.279,5.279,0,0,0,2.462-.585,3.907,3.907,0,0,0,1.656-1.508,6.9,6.9,0,0,0,.609-3.359Zm.3,6.505a13.951,13.951,0,0,1-3.155,1.9,8.809,8.809,0,0,1-3.417.634,6.471,6.471,0,0,1-3.041-.683,4.977,4.977,0,0,1-2.017-1.854,4.8,4.8,0,0,1-.708-2.536,4.543,4.543,0,0,1,1.169-3.145,5.845,5.845,0,0,1,3.213-1.747q.427-.1,2.124-.446t2.908-.634q1.211-.287,2.627-.7a4.7,4.7,0,0,0-.717-2.612,3.211,3.211,0,0,0-2.629-.829,5.461,5.461,0,0,0-2.575.477,4.176,4.176,0,0,0-1.485,1.433,15.092,15.092,0,0,1-.873,1.261,1.439,1.439,0,0,1-1.1.3,1.907,1.907,0,0,1-1.308-.487,1.582,1.582,0,0,1-.553-1.244,3.819,3.819,0,0,1,.841-2.307,6,6,0,0,1,2.618-1.844,11.806,11.806,0,0,1,4.43-.725,12.557,12.557,0,0,1,4.664.7,4.339,4.339,0,0,1,2.4,2.216,9.7,9.7,0,0,1,.7,4.02q0,1.581-.009,2.685t-.024,2.454a8.955,8.955,0,0,0,.421,2.643,8.332,8.332,0,0,1,.418,1.772,1.659,1.659,0,0,1-.651,1.26,2.178,2.178,0,0,1-1.473.567,1.989,1.989,0,0,1-1.368-.649,9.7,9.7,0,0,1-1.432-1.888" transform="translate(-498.348 -142.789)" fill="#004f9d"></path><path id="Path_17" data-name="Path 17" d="M-1244.906,236.18v13a2.9,2.9,0,0,1-.643,2.042,2.127,2.127,0,0,1-1.631.691,2.032,2.032,0,0,1-1.606-.708,3,3,0,0,1-.618-2.025V236.311a2.9,2.9,0,0,1,.618-2.01,2.078,2.078,0,0,1,1.606-.675,2.151,2.151,0,0,1,1.631.675,2.609,2.609,0,0,1,.643,1.879m-2.224-4.645a2.371,2.371,0,0,1-1.606-.578,2.039,2.039,0,0,1-.668-1.63,2.032,2.032,0,0,1,.684-1.572,2.294,2.294,0,0,1,1.59-.618,2.359,2.359,0,0,1,1.549.56,1.994,1.994,0,0,1,.675,1.631,2.053,2.053,0,0,1-.659,1.622,2.272,2.272,0,0,1-1.564.585" transform="translate(-531.155 -132.709)" fill="#004f9d"></path><path id="Path_18" data-name="Path 18" d="M-1225.991,248.868v-19.5a3.046,3.046,0,0,1,.6-2.044,2.04,2.04,0,0,1,1.624-.691,2.125,2.125,0,0,1,1.646.684,2.937,2.937,0,0,1,.627,2.051v19.5a2.919,2.919,0,0,1-.634,2.051,2.137,2.137,0,0,1-1.639.683,2.037,2.037,0,0,1-1.608-.708,3,3,0,0,1-.617-2.025" transform="translate(-545.426 -132.401)" fill="#004f9d"></path><path id="Path_19" data-name="Path 19" d="M-1198.846,282.842a2.559,2.559,0,0,1-1.761-.658,2.336,2.336,0,0,1-.742-1.846,2.386,2.386,0,0,1,.708-1.729,2.339,2.339,0,0,1,1.745-.724,2.436,2.436,0,0,1,1.77.716,2.338,2.338,0,0,1,.734,1.738,2.356,2.356,0,0,1-.734,1.837,2.47,2.47,0,0,1-1.72.667" transform="translate(-560.445 -163.641)" fill="#004f9d"></path><path id="Path_20" data-name="Path 20" d="M-1905.37,192.584a29.851,29.851,0,0,1-29.775,28.595,29.852,29.852,0,0,1-29.775-28.595h-14.921a44.779,44.779,0,0,0,44.7,43.516,44.782,44.782,0,0,0,44.7-43.516Z" transform="translate(-85.939 -111.649)" fill="#004f9d"></path><path id="Path_21" data-name="Path 21" d="M-1964.915,181.675a7.463,7.463,0,0,1-7.464,7.463,7.462,7.462,0,0,1-7.463-7.463,7.462,7.462,0,0,1,7.463-7.463,7.463,7.463,0,0,1,7.464,7.463" transform="translate(-85.939 -100.451)" fill="#004f9d"></path><path id="Path_22" data-name="Path 22" d="M-1820.1,119.216a12.044,12.044,0,0,0-12.043,12.044h24.087a12.044,12.044,0,0,0-12.043-12.044" transform="translate(-175.962 -66.93)" fill="#004f9d"></path><path id="Path_23" data-name="Path 23" d="M-2081.949,132.816a7.407,7.407,0,0,1,5.42,2.254,7.412,7.412,0,0,1,2.259,5.424,7.468,7.468,0,0,1-2.259,5.483,7.391,7.391,0,0,1-5.42,2.259h-31.144a7.468,7.468,0,0,1-5.488-2.259,7.464,7.464,0,0,1-2.254-5.483V63.31a7.405,7.405,0,0,1,2.254-5.419,7.488,7.488,0,0,1,5.488-2.26,7.413,7.413,0,0,1,5.42,2.26,7.391,7.391,0,0,1,2.258,5.419v69.506Z" transform="translate(0 -28.174)" fill="#004f9d"></path></g></svg>