<?xml version="1.0" encoding="utf-8"?>
<!-- Generator: Adobe Illustrator 27.8.1, SVG Export Plug-In . SVG Version: 6.00 Build 0)  -->
<svg version="1.1" id="Layer_1" xmlns="http://www.w3.org/2000/svg" xmlns:xlink="http://www.w3.org/1999/xlink" x="0px" y="0px"
	 viewBox="0 0 1884.4 1409.2" style="enable-background:new 0 0 1884.4 1409.2;" xml:space="preserve">
<style type="text/css">
	.st0{fill:#004F9D;}
</style>
<g>
	<g>
		<path class="st0" d="M953.5,463.1c-31.5,0-57.1,25.5-57.1,57.1h114.1C1010.6,488.7,985,463.1,953.5,463.1"/>
		<path class="st0" d="M1517.2,728.2l-68.5-109.5c22.4-12.8,40.2-30.4,53.5-52.6c13.7-23,20.5-47.9,20.5-74.6
			c0-40.3-14.3-74.8-42.8-103.3c-28.5-28.6-63-42.8-103.3-42.8H1267c-10.2,0-18.9,3.6-26,10.7c-7.1,7.1-10.7,15.7-10.7,25.7v183
			h-58.7C1154.5,393.7,1010.1,260,834.5,260c-187.1,0-338.8,151.7-338.8,338.8c0,39.4,6.8,77.1,19.1,112.3h-79.3V381.9
			c0-10-3.6-18.5-10.7-25.7c-7.1-7.1-15.7-10.7-25.7-10.7c-10.2,0-18.9,3.6-26,10.7c-7.1,7.1-10.7,15.7-10.7,25.7v365.6
			c0,10.2,3.6,18.9,10.7,26c7.1,7.1,15.8,10.7,26,10.7h147.5c1.4,0,2.7-0.1,4.1-0.2c60.5,92.5,164.9,153.7,283.7,153.7
			c174.7,0,318.5-132.3,336.8-302.1h59v111.9c0,10.2,3.6,18.9,10.7,26c7.1,7.1,15.8,10.7,26,10.7c10,0,18.6-3.6,25.7-10.7
			c7.1-7.1,10.7-15.8,10.7-26V638.1h71.2l80.7,129c7.1,11.4,17.5,17.1,31.2,17.1c6.9,0,13.4-1.8,19.3-5.5c8.6-5.3,14-12.9,16.2-22.9
			C1524.1,746,1522.5,736.8,1517.2,728.2z M658.6,564.8L658.6,564.8c-19.1,0-34.6,15.1-35.3,34h-0.1c0,0.2,0,0.4,0,0.7
			c0,0.2,0,0.5,0,0.7c0,1.5,0.1,3,0.3,4.4C629.7,716.1,722,805,835,805c102.3,0,187.7-72.9,207.4-169.4h57.2
			c-17.9,130.5-129.8,231.1-265.2,231.1c-147.9,0-267.8-119.9-267.8-267.8c0-147.9,119.9-267.8,267.8-267.8
			c136.4,0,248.8,102,265.6,233.8H658.6z M969.6,635.6c-18.1,57.2-71.5,98.7-134.6,98.7c-63.1,0-116.5-41.6-134.6-98.7H969.6z
			 M1376.6,564.7h-73.3V418.6h73.3c20.2,0,37.4,7.1,51.7,21.4c14.3,14.3,21.4,31.5,21.4,51.7c0,20.2-7.1,37.4-21.4,51.7
			C1414,557.6,1396.8,564.7,1376.6,564.7z"/>
	</g>
	<rect x="361.6" y="1136.2" class="st0" width="65" height="7.1"/>
	<g>
		<path class="st0" d="M373.3,1021.6h2.6v-14c0-3.8,0.1-6.7,0.3-8.9c0.2-2.1,0.8-4,1.7-5.5c0.9-1.6,2.2-2.9,3.9-3.9
			c1.7-1,3.6-1.5,5.7-1.5c3,0,5.6,1.1,8,3.3c1.6,1.5,2.6,3.3,3,5.4c0.4,2.1,0.6,5.2,0.6,9.1v15.9h8.6c3.3,0,5.8,0.8,7.6,2.4
			c1.7,1.6,2.6,3.6,2.6,6c0,3.1-1.2,5.3-3.7,6.6c-2.5,1.3-6,1.9-10.7,1.9h-4.4v43c0,3.7,0.1,6.5,0.4,8.4c0.3,2,0.9,3.6,2.1,4.8
			c1.1,1.2,2.9,1.8,5.4,1.8c1.4,0,3.2-0.2,5.6-0.7c2.3-0.5,4.2-0.7,5.5-0.7c1.9,0,3.6,0.8,5.1,2.3c1.5,1.5,2.3,3.4,2.3,5.6
			c0,3.8-2.1,6.6-6.2,8.6c-4.1,2-10,3-17.7,3c-7.3,0-12.8-1.2-16.6-3.7c-3.8-2.5-6.2-5.9-7.4-10.2c-1.2-4.3-1.8-10.1-1.8-17.4v-44.9
			h-3.1c-3.4,0-5.9-0.8-7.7-2.4c-1.8-1.6-2.7-3.6-2.7-6.1c0-2.5,0.9-4.5,2.8-6C367.1,1022.3,369.8,1021.6,373.3,1021.6z"/>
		<path class="st0" d="M506.4,1072.8h-45.7c0.1,5.3,1.1,10,3.2,14c2.1,4,4.8,7.1,8.3,9.2c3.5,2.1,7.3,3.1,11.4,3.1
			c2.8,0,5.4-0.3,7.7-1c2.3-0.7,4.5-1.7,6.7-3.1c2.2-1.4,4.2-2.9,6-4.5c1.8-1.6,4.2-3.8,7.1-6.5c1.2-1,2.9-1.5,5.1-1.5
			c2.4,0,4.3,0.7,5.8,2c1.5,1.3,2.2,3.2,2.2,5.6c0,2.1-0.8,4.6-2.5,7.4c-1.7,2.8-4.2,5.5-7.5,8.1c-3.3,2.6-7.5,4.8-12.6,6.5
			c-5.1,1.7-10.9,2.6-17.4,2.6c-15,0-26.7-4.3-35-12.8c-8.3-8.6-12.5-20.2-12.5-34.8c0-6.9,1-13.3,3.1-19.2c2.1-5.9,5.1-11,9-15.2
			c3.9-4.2,8.8-7.5,14.6-9.7c5.8-2.3,12.2-3.4,19.2-3.4c9.1,0,17,1.9,23.5,5.8c6.5,3.9,11.4,8.8,14.7,14.9
			c3.3,6.1,4.9,12.3,4.9,18.7c0,5.9-1.7,9.7-5.1,11.4C517.2,1071.9,512.5,1072.8,506.4,1072.8z M460.6,1059.5H503
			c-0.6-8-2.7-14-6.5-17.9c-3.7-4-8.7-5.9-14.8-5.9c-5.8,0-10.6,2-14.3,6C463.7,1045.7,461.4,1051.6,460.6,1059.5z"/>
		<path class="st0" d="M636.1,1085.6c0,2.9-0.9,6-2.6,9.3c-1.7,3.3-4.4,6.5-8,9.5c-3.6,3-8.1,5.4-13.5,7.2
			c-5.4,1.8-11.5,2.7-18.3,2.7c-14.4,0-25.7-4.2-33.8-12.6c-8.1-8.4-12.2-19.7-12.2-33.9c0-9.6,1.9-18.1,5.6-25.4
			c3.7-7.4,9.1-13.1,16.1-17.1c7-4,15.4-6,25.2-6c6,0,11.6,0.9,16.7,2.7c5.1,1.8,9.3,4,12.8,6.8c3.5,2.8,6.2,5.8,8,8.9
			c1.9,3.2,2.8,6.1,2.8,8.9c0,2.8-1,5.2-3.1,7.1c-2.1,1.9-4.6,2.9-7.6,2.9c-1.9,0-3.6-0.5-4.8-1.5c-1.3-1-2.7-2.6-4.3-4.8
			c-2.9-4.3-5.8-7.6-8.9-9.8c-3.1-2.2-7.1-3.3-11.9-3.3c-6.9,0-12.5,2.7-16.7,8.1c-4.2,5.4-6.3,12.8-6.3,22.1
			c0,4.4,0.5,8.4,1.6,12.1c1.1,3.7,2.7,6.8,4.7,9.4c2.1,2.6,4.5,4.6,7.4,5.9c2.9,1.3,6.1,2,9.6,2c4.7,0,8.7-1.1,12-3.3
			c3.3-2.2,6.3-5.5,8.9-9.9c1.4-2.6,3-4.7,4.6-6.2c1.7-1.5,3.7-2.2,6.1-2.2c2.9,0,5.2,1.1,7.1,3.3
			C635.2,1080.8,636.1,1083.1,636.1,1085.6z"/>
		<path class="st0" d="M682,999v34.7c3-3.4,5.9-6.1,8.7-8.1c2.8-2,5.9-3.5,9.4-4.5c3.4-1,7.1-1.5,11-1.5c5.9,0,11.2,1.3,15.8,3.8
			c4.6,2.5,8.2,6.2,10.8,11c1.7,2.8,2.8,5.9,3.3,9.4c0.6,3.4,0.9,7.4,0.9,11.9v44.8c0,4.7-1.1,8.2-3.2,10.6c-2.1,2.4-5,3.6-8.5,3.6
			c-7.7,0-11.6-4.7-11.6-14.2v-39.5c0-7.5-1.1-13.2-3.3-17.2c-2.2-4-6.5-6-12.7-6c-4.2,0-7.9,1.2-11.3,3.6c-3.3,2.4-5.8,5.6-7.5,9.7
			c-1.3,3.5-1.9,9.7-1.9,18.6v30.9c0,4.6-1,8.1-3.1,10.6c-2.1,2.4-5,3.6-8.7,3.6c-7.7,0-11.6-4.7-11.6-14.2V999c0-4.7,1-8.3,3-10.7
			c2-2.4,4.9-3.6,8.5-3.6c3.7,0,6.6,1.2,8.7,3.6C681,990.7,682,994.3,682,999z"/>
		<path class="st0" d="M793.3,1032.4v2.8c4.1-5.4,8.6-9.4,13.5-11.9c4.9-2.5,10.5-3.8,16.8-3.8c6.2,0,11.7,1.3,16.5,4
			c4.8,2.7,8.5,6.5,10.9,11.4c1.5,2.9,2.5,5.9,3,9.2c0.5,3.3,0.7,7.5,0.7,12.7v43.5c0,4.7-1.1,8.2-3.2,10.6
			c-2.1,2.4-4.9,3.6-8.3,3.6c-3.5,0-6.3-1.2-8.5-3.7c-2.2-2.5-3.3-6-3.3-10.5v-38.9c0-7.7-1.1-13.6-3.2-17.7
			c-2.1-4.1-6.4-6.1-12.8-6.1c-4.2,0-8,1.2-11.4,3.7c-3.4,2.5-5.9,5.9-7.5,10.2c-1.1,3.5-1.7,10-1.7,19.5v29.3
			c0,4.7-1.1,8.3-3.3,10.7c-2.2,2.4-5,3.6-8.5,3.6c-3.4,0-6.1-1.2-8.3-3.7c-2.2-2.5-3.3-6-3.3-10.5v-67.5c0-4.5,1-7.8,2.9-10
			c1.9-2.2,4.6-3.3,8-3.3c2.1,0,3.9,0.5,5.6,1.5c1.7,1,3,2.4,4,4.4C792.8,1027.3,793.3,1029.6,793.3,1032.4z"/>
		<path class="st0" d="M972.4,1067c0,7-1.1,13.4-3.3,19.3c-2.2,5.9-5.3,10.9-9.4,15.2c-4.1,4.2-9,7.5-14.7,9.7
			c-5.7,2.3-12.1,3.4-19.3,3.4c-7.1,0-13.4-1.1-19.1-3.4c-5.6-2.3-10.5-5.6-14.7-9.8c-4.1-4.3-7.3-9.3-9.4-15.1
			c-2.1-5.8-3.2-12.2-3.2-19.2c0-7.1,1.1-13.6,3.3-19.4c2.2-5.9,5.3-10.9,9.3-15.1c4.1-4.2,9-7.4,14.7-9.6
			c5.8-2.3,12.1-3.4,19.1-3.4c7.1,0,13.5,1.1,19.3,3.4c5.8,2.3,10.7,5.5,14.8,9.8c4.1,4.2,7.2,9.2,9.4,15.1
			C971.4,1053.6,972.4,1060,972.4,1067z M949,1067c0-9.5-2.1-16.9-6.3-22.3c-4.2-5.3-9.8-8-16.9-8c-4.6,0-8.6,1.2-12.1,3.6
			c-3.5,2.4-6.2,5.9-8,10.5c-1.9,4.6-2.8,10-2.8,16.2c0,6.1,0.9,11.4,2.8,16c1.9,4.6,4.5,8.1,8,10.5c3.5,2.4,7.5,3.6,12.2,3.6
			c7.1,0,12.7-2.7,16.9-8C946.9,1083.8,949,1076.4,949,1067z"/>
		<path class="st0" d="M997.9,1100.3V999c0-4.7,1-8.2,3.1-10.6c2.1-2.4,4.9-3.6,8.4-3.6c3.5,0,6.4,1.2,8.6,3.6
			c2.2,2.4,3.3,5.9,3.3,10.7v101.4c0,4.7-1.1,8.3-3.3,10.7c-2.2,2.4-5,3.6-8.5,3.6c-3.4,0-6.2-1.2-8.3-3.7
			C998.9,1108.4,997.9,1104.9,997.9,1100.3z"/>
		<path class="st0" d="M1139.9,1067c0,7-1.1,13.4-3.3,19.3c-2.2,5.9-5.3,10.9-9.4,15.2c-4.1,4.2-9,7.5-14.7,9.7
			c-5.7,2.3-12.1,3.4-19.3,3.4c-7.1,0-13.4-1.1-19.1-3.4c-5.6-2.3-10.5-5.6-14.7-9.8c-4.1-4.3-7.3-9.3-9.4-15.1
			c-2.1-5.8-3.2-12.2-3.2-19.2c0-7.1,1.1-13.6,3.3-19.4c2.2-5.9,5.3-10.9,9.3-15.1c4.1-4.2,9-7.4,14.7-9.6
			c5.8-2.3,12.1-3.4,19.1-3.4c7.1,0,13.5,1.1,19.3,3.4c5.8,2.3,10.7,5.5,14.8,9.8c4.1,4.2,7.2,9.2,9.4,15.1S1139.9,1060,1139.9,1067
			z M1116.4,1067c0-9.5-2.1-16.9-6.3-22.3c-4.2-5.3-9.8-8-16.9-8c-4.6,0-8.6,1.2-12.1,3.6c-3.5,2.4-6.2,5.9-8,10.5
			c-1.9,4.6-2.8,10-2.8,16.2c0,6.1,0.9,11.4,2.8,16c1.9,4.6,4.5,8.1,8,10.5c3.5,2.4,7.5,3.6,12.2,3.6c7.1,0,12.7-2.7,16.9-8
			C1114.3,1083.8,1116.4,1076.4,1116.4,1067z"/>
		<path class="st0" d="M1251.2,1036.6v67.9c0,7.8-0.8,14.4-2.5,20c-1.7,5.6-4.3,10.2-8,13.9c-3.7,3.6-8.4,6.4-14.3,8.1
			c-5.9,1.8-13.3,2.7-22,2.7c-8,0-15.2-1.1-21.6-3.4c-6.3-2.3-11.2-5.2-14.6-8.7c-3.4-3.6-5.1-7.2-5.1-11c0-2.9,1-5.2,2.9-7
			c1.9-1.8,4.3-2.7,7-2.7c3.4,0,6.4,1.5,9,4.5c1.3,1.5,2.6,3.1,3.9,4.7c1.3,1.6,2.8,2.9,4.5,4c1.6,1.1,3.6,1.9,5.9,2.5
			c2.3,0.5,4.9,0.8,7.9,0.8c6,0,10.7-0.8,14.1-2.5c3.3-1.7,5.7-4,7-7.1c1.3-3,2.1-6.3,2.4-9.7c0.2-3.5,0.4-9,0.5-16.6
			c-3.6,5-7.7,8.8-12.5,11.5c-4.7,2.6-10.3,3.9-16.8,3.9c-7.8,0-14.7-2-20.5-6c-5.9-4-10.3-9.6-13.5-16.8
			c-3.1-7.2-4.7-15.5-4.7-24.9c0-7,1-13.4,2.9-19c1.9-5.6,4.6-10.4,8.2-14.3c3.5-3.9,7.6-6.8,12.2-8.8c4.6-2,9.7-3,15.2-3
			c6.6,0,12.4,1.3,17.2,3.8c4.8,2.5,9.4,6.5,13.5,11.9v-3.2c0-4.1,1-7.2,3-9.4c2-2.2,4.6-3.3,7.7-3.3c4.5,0,7.5,1.5,9,4.4
			C1250.5,1026.9,1251.2,1031.1,1251.2,1036.6z M1183.5,1066.2c0,9.5,2.1,16.6,6.2,21.5c4.1,4.8,9.5,7.3,16.1,7.3
			c3.9,0,7.5-1,11-3.1c3.5-2.1,6.3-5.2,8.4-9.4c2.2-4.2,3.3-9.3,3.3-15.3c0-9.5-2.1-16.9-6.3-22.3c-4.2-5.3-9.7-8-16.6-8
			c-6.7,0-12,2.5-16.1,7.6C1185.5,1049.7,1183.5,1056.9,1183.5,1066.2z"/>
		<path class="st0" d="M1293.7,1008.6c-3.3,0-6-1-8.3-3c-2.3-2-3.5-4.8-3.5-8.5c0-3.3,1.2-6,3.6-8.2s5.1-3.2,8.3-3.2
			c3,0,5.7,1,8,2.9c2.3,1.9,3.5,4.8,3.5,8.5c0,3.6-1.1,6.4-3.4,8.4C1299.5,1007.6,1296.8,1008.6,1293.7,1008.6z M1305.2,1032.8v67.5
			c0,4.7-1.1,8.2-3.3,10.6c-2.2,2.4-5.1,3.6-8.5,3.6c-3.4,0-6.2-1.2-8.3-3.7c-2.1-2.5-3.2-6-3.2-10.5v-66.9c0-4.6,1.1-8.1,3.2-10.4
			c2.1-2.3,4.9-3.5,8.3-3.5c3.4,0,6.2,1.2,8.5,3.5C1304.1,1025.4,1305.2,1028.6,1305.2,1032.8z"/>
		<path class="st0" d="M1401.6,1072.8h-45.7c0.1,5.3,1.1,10,3.2,14c2.1,4,4.8,7.1,8.3,9.2c3.5,2.1,7.3,3.1,11.4,3.1
			c2.8,0,5.4-0.3,7.7-1c2.3-0.7,4.5-1.7,6.7-3.1c2.2-1.4,4.2-2.9,6-4.5c1.8-1.6,4.2-3.8,7.1-6.5c1.2-1,2.9-1.5,5.1-1.5
			c2.4,0,4.3,0.7,5.8,2c1.5,1.3,2.2,3.2,2.2,5.6c0,2.1-0.8,4.6-2.5,7.4c-1.7,2.8-4.2,5.5-7.5,8.1c-3.3,2.6-7.5,4.8-12.6,6.5
			c-5.1,1.7-10.9,2.6-17.4,2.6c-15,0-26.7-4.3-35-12.8c-8.3-8.6-12.5-20.2-12.5-34.8c0-6.9,1-13.3,3.1-19.2s5.1-11,9-15.2
			c3.9-4.2,8.8-7.5,14.6-9.7c5.8-2.3,12.2-3.4,19.2-3.4c9.1,0,17,1.9,23.5,5.8c6.5,3.9,11.4,8.8,14.7,14.9
			c3.3,6.1,4.9,12.3,4.9,18.7c0,5.9-1.7,9.7-5.1,11.4C1412.5,1071.9,1407.7,1072.8,1401.6,1072.8z M1355.9,1059.5h42.4
			c-0.6-8-2.7-14-6.5-17.9c-3.7-4-8.7-5.9-14.8-5.9c-5.8,0-10.6,2-14.3,6C1359,1045.7,1356.7,1051.6,1355.9,1059.5z"/>
		<path class="st0" d="M1522.8,1084c0,6.4-1.6,12-4.7,16.6c-3.1,4.6-7.8,8.1-13.9,10.4c-6.1,2.4-13.6,3.6-22.4,3.6
			c-8.4,0-15.6-1.3-21.6-3.9c-6-2.6-10.4-5.8-13.3-9.6s-4.3-7.7-4.3-11.6c0-2.6,0.9-4.8,2.7-6.6c1.8-1.8,4.1-2.7,6.9-2.7
			c2.5,0,4.3,0.6,5.6,1.8c1.3,1.2,2.6,2.9,3.8,5.1c2.4,4.2,5.3,7.3,8.6,9.3c3.3,2.1,7.9,3.1,13.7,3.1c4.7,0,8.5-1,11.5-3.1
			c3-2.1,4.5-4.5,4.5-7.1c0-4.1-1.6-7.1-4.7-9c-3.1-1.9-8.2-3.7-15.4-5.4c-8-2-14.6-4.1-19.6-6.3c-5.1-2.2-9.1-5.1-12.1-8.7
			s-4.5-8-4.5-13.3c0-4.7,1.4-9.1,4.2-13.3c2.8-4.2,6.9-7.5,12.4-10c5.4-2.5,12-3.7,19.7-3.7c6,0,11.5,0.6,16.3,1.9
			c4.8,1.3,8.8,2.9,12.1,5.1c3.2,2.1,5.7,4.5,7.4,7c1.7,2.6,2.5,5.1,2.5,7.5c0,2.7-0.9,4.9-2.7,6.6c-1.8,1.7-4.4,2.6-7.7,2.6
			c-2.4,0-4.4-0.7-6.1-2.1c-1.7-1.4-3.6-3.4-5.8-6.2c-1.8-2.3-3.9-4.1-6.2-5.5c-2.4-1.4-5.6-2.1-9.8-2.1c-4.2,0-7.7,0.9-10.5,2.7
			c-2.8,1.8-4.2,4-4.2,6.7c0,2.5,1,4.5,3.1,6c2.1,1.6,4.8,2.9,8.3,3.9c3.5,1,8.3,2.3,14.4,3.8c7.2,1.8,13.2,3.9,17.8,6.3
			c4.6,2.5,8.1,5.4,10.4,8.7C1521.6,1075.9,1522.8,1079.7,1522.8,1084z"/>
	</g>
</g>
</svg>
